# Tiled2Unity generated file. Do not modify by hand.
# Wavefront file for 'Level3_mesh_0002.obj'

# Vertices (Count = 40)
v -2240 -912 0
v -2256 -912 0
v -2256 -896 0
v -2240 -896 0
v -2224 -912 0
v -2240 -912 0
v -2240 -896 0
v -2224 -896 0
v -2512 -896 0
v -2528 -896 0
v -2528 -880 0
v -2512 -880 0
v -3216 -880 0
v -3232 -880 0
v -3232 -864 0
v -3216 -864 0
v -3200 -880 0
v -3216 -880 0
v -3216 -864 0
v -3200 -864 0
v -3184 -880 0
v -3200 -880 0
v -3200 -864 0
v -3184 -864 0
v -2960 -864 0
v -2976 -864 0
v -2976 -848 0
v -2960 -848 0
v -2672 -864 0
v -2688 -864 0
v -2688 -848 0
v -2672 -848 0
v -2992 -848 0
v -3008 -848 0
v -3008 -832 0
v -2992 -832 0
v -3024 -832 0
v -3040 -832 0
v -3040 -816 0
v -3024 -816 0

# Texture cooridinates (Count = 4)
vt 0.1251221 0.6251221
vt 0.2498779 0.6251221
vt 0.2498779 0.7498779
vt 0.1251221 0.7498779

# Normal
vn 0 0 -1

# Mesh description
g Level3_mesh_0002

# Faces
f 1/1/1 2/2/1 3/3/1 4/4/1
f 5/1/1 6/2/1 7/3/1 8/4/1
f 9/1/1 10/2/1 11/3/1 12/4/1
f 13/1/1 14/2/1 15/3/1 16/4/1
f 17/1/1 18/2/1 19/3/1 20/4/1
f 21/1/1 22/2/1 23/3/1 24/4/1
f 25/1/1 26/2/1 27/3/1 28/4/1
f 29/1/1 30/2/1 31/3/1 32/4/1
f 33/1/1 34/2/1 35/3/1 36/4/1
f 37/1/1 38/2/1 39/3/1 40/4/1

